<svg width="42" height="41" viewBox="0 0 42 41" fill="none" xmlns="http://www.w3.org/2000/svg">
<g clip-path="url(#clip0_244_7362)">
<path d="M10.8084 32.6733C10.0501 32.6733 9.36371 32.9854 8.86914 33.4893C8.37461 33.9885 8.07227 34.6846 8.07227 35.443C8.07227 36.2014 8.37461 36.8975 8.86914 37.3967C9.35865 37.8959 10.05 38.2126 10.8084 38.2126C11.5668 38.2126 12.2531 37.9006 12.7477 37.3967C13.2422 36.8974 13.5446 36.2014 13.5446 35.443C13.5446 34.6846 13.2423 33.9885 12.7477 33.4893C12.2532 32.9854 11.5668 32.6733 10.8084 32.6733ZM11.7205 36.3838C11.4804 36.6239 11.1637 36.7679 10.8084 36.7679C10.4532 36.7679 10.1364 36.6239 9.89634 36.3838C9.6613 36.1438 9.5123 35.8126 9.5123 35.4429C9.5123 35.0686 9.66096 34.7422 9.89634 34.5021C10.1364 34.262 10.4532 34.118 10.8084 34.118C11.1637 34.118 11.4804 34.262 11.7205 34.5021C11.9556 34.7421 12.1046 35.0733 12.1046 35.4429C12.1042 35.8126 11.9556 36.139 11.7205 36.3838Z" fill="#E2E2E2"/>
<path d="M38.3271 15.5278C38.5287 14.8079 38.6392 14.0496 38.6392 13.2671C38.6392 10.9535 37.7127 8.84647 36.2151 7.3247C34.7174 5.80293 32.6392 4.8527 30.3447 4.85741C29.3797 4.85741 28.4537 5.03018 27.5941 5.33755C25.8276 2.68307 22.8326 0.92627 19.4245 0.92627C16.8183 0.92627 14.442 1.95818 12.6852 3.62858C11.1779 5.06361 10.1222 6.97409 9.73316 9.12466C9.34443 9.06707 8.95068 9.03359 8.54285 9.03359C6.26268 9.03359 4.18916 9.97448 2.70125 11.4912C1.2183 12.9982 0.296875 15.0959 0.296875 17.3998C0.296875 20.3181 1.7751 22.8959 4.0167 24.3936C4.01202 24.5041 4.00231 24.6142 4.00231 24.7297C4.00231 26.5489 4.54472 28.2721 5.59102 29.5826C6.11435 30.2355 6.77191 30.7826 7.53502 31.162C8.3031 31.5413 9.17662 31.7523 10.1175 31.7523C10.4727 31.7523 10.8183 31.6994 11.1591 31.6324C11.5622 31.546 11.951 31.4355 12.2824 31.3301C12.4361 31.6083 12.6376 31.9348 12.8871 32.271C13.2326 32.7317 13.6789 33.2118 14.2552 33.6196C14.8264 34.0227 15.5416 34.3445 16.3673 34.45C16.7272 34.4931 17.0777 34.5173 17.4136 34.5173C19.3288 34.5173 20.8361 33.8453 21.844 33.183C22.2521 32.9142 22.5833 32.6503 22.8327 32.42C23.0296 32.5305 23.2599 32.6456 23.5288 32.7655C24.3926 33.1495 25.6167 33.5336 27.0759 33.5336C27.4167 33.5336 27.772 33.5145 28.1319 33.4663C29.8934 33.2359 31.6887 32.4725 33.1 31.2056C33.8055 30.5721 34.4105 29.804 34.8424 28.9161C35.1303 28.3258 35.3319 27.6776 35.4471 26.9865C35.5479 26.9911 35.6439 27.0055 35.7447 27.0055C37.391 27.0055 38.8887 26.3238 39.9638 25.2296C41.039 24.1401 41.7015 22.628 41.7015 20.9673C41.7015 18.571 40.3287 16.5021 38.3272 15.5278L38.3271 15.5278ZM38.596 23.8799C37.8617 24.6239 36.8583 25.0799 35.7497 25.0799C35.4376 25.0799 35.1306 25.0414 34.8232 24.9647L33.6567 24.6865L33.6376 25.8865C33.6232 26.7024 33.4408 27.4226 33.124 28.0705C32.6536 29.0354 31.8761 29.8417 30.9446 30.4417C30.0135 31.0417 28.924 31.4257 27.8918 31.56C27.6135 31.5985 27.3447 31.6129 27.0805 31.6129C25.9622 31.6129 24.9926 31.3152 24.3109 31.0082C23.97 30.8595 23.7012 30.7058 23.519 30.5954C23.428 30.5425 23.3653 30.4946 23.3222 30.4658L23.279 30.437L23.2743 30.4323L22.535 29.8708L21.9541 30.5907C21.9397 30.6051 21.5027 31.1234 20.7206 31.6179C19.9381 32.1124 18.8295 32.5875 17.4182 32.5875C17.1591 32.5875 16.8902 32.5731 16.612 32.5346C16.1369 32.477 15.7338 32.2945 15.3688 32.04C14.8217 31.6607 14.3801 31.0895 14.0968 30.6096C13.9528 30.3696 13.8474 30.1583 13.7801 30.0096C13.7466 29.9376 13.7225 29.8801 13.7081 29.8416L13.6937 29.8031V29.7984L13.3575 28.8673L12.4357 29.2369L12.4213 29.2416C12.3447 29.2704 11.9462 29.4241 11.4708 29.568C11.2307 29.64 10.9762 29.7073 10.7365 29.7505C10.4964 29.7984 10.2758 29.8225 10.1318 29.8225C9.46954 29.8225 8.90302 29.6785 8.39911 29.4338C7.65045 29.0641 7.04071 28.44 6.60879 27.6241C6.17687 26.8081 5.93212 25.8 5.93212 24.7249C5.93212 24.4992 5.95121 24.2642 5.98971 24.0194L6.08079 23.3715L5.50958 23.0498C3.55589 21.9506 2.22629 19.8385 2.22629 17.3953C2.22629 15.605 2.93678 13.9969 4.08861 12.8257C5.24069 11.6592 6.81509 10.944 8.56212 10.9393C9.16212 10.9393 9.743 11.0304 10.2998 11.1938L11.4422 11.5249L11.5239 10.3393C11.6726 8.23699 12.6041 6.35993 14.0247 5.00659C15.4453 3.65291 17.3414 2.83228 19.4391 2.83228C22.42 2.83228 25.0165 4.50268 26.38 6.98908L26.8169 7.79064L27.6376 7.39221C28.4679 6.98908 29.3847 6.76342 30.3594 6.76342C32.1162 6.76342 33.7049 7.48328 34.8617 8.6595C36.0185 9.83541 36.7337 11.4533 36.7337 13.2579C36.7337 14.1314 36.5609 14.9618 36.2535 15.7202L35.8551 16.7042L36.8726 17.0019C38.5477 17.4914 39.7959 19.0708 39.7909 20.9571C39.7816 22.1086 39.3302 23.1358 38.596 23.8798L38.596 23.8799Z" fill="#E2E2E2"/>
<path d="M8.49934 39.009C8.49934 39.6188 8.01151 40.113 7.40983 40.113C6.80782 40.113 6.32031 39.6188 6.32031 39.009C6.32031 38.3993 6.80781 37.9048 7.40983 37.9048C8.0115 37.9048 8.49934 38.3993 8.49934 39.009Z" fill="#E2E2E2"/>
</g>
<defs>
<clipPath id="clip0_244_7362">
<rect width="42" height="41" fill="white"/>
</clipPath>
</defs>
</svg>
