<svg width="50" height="53" viewBox="0 0 50 53" fill="none" xmlns="http://www.w3.org/2000/svg">
<g clip-path="url(#clip0_244_7501)">
<path d="M35.6429 14.2729C35.5604 14.1904 35.4779 14.1079 35.3954 14.1079C35.3129 14.0254 35.1479 14.0254 34.9829 14.0254H34.7354C33.3329 14.2729 32.0129 14.4379 30.6104 14.6854C30.4454 14.7679 30.3629 14.7679 30.1979 14.8504C29.9504 14.9329 29.7854 15.0154 29.5379 15.0979C28.4654 15.4279 27.4754 16.0054 26.5679 16.6654C25.5779 17.3254 24.6704 17.9854 23.6804 18.6454C21.8654 19.8829 20.1328 21.0379 18.3178 22.2754C18.0703 22.4404 17.9053 22.6054 17.6578 22.6879C16.6678 23.3479 15.5953 24.0904 14.5228 24.8329C13.3678 25.6579 12.4603 26.6479 11.9653 27.9679C11.6353 28.7929 11.1403 29.7004 10.6453 30.4429C10.3153 31.0204 9.82035 31.1854 8.99535 31.1029C7.18035 30.7729 5.44785 31.3504 4.12785 32.5879C2.80784 33.8254 2.23034 35.5579 2.47784 37.3729C2.72534 38.9404 3.55035 40.3429 4.87035 41.1679C6.19035 42.0754 7.84035 42.3229 9.40785 41.9104C12.2128 41.1679 14.0278 38.5279 13.5328 35.7229C13.5328 35.4754 13.4503 35.3104 13.3678 35.0629C13.2028 34.3204 13.3678 33.8254 13.9453 33.3304C17.4928 30.3604 20.5453 27.7204 23.4324 25.2454C26.2374 22.8529 29.0424 20.3779 32.4249 17.6554C33.3324 16.9129 34.2399 16.0879 35.1474 15.3454C35.2299 15.2629 35.3124 15.2629 35.3949 15.1804C35.5599 15.0154 35.6424 14.8504 35.6424 14.6029C35.7249 14.5204 35.7249 14.3554 35.6424 14.2729H35.6429ZM8.66582 40.0959C7.75832 40.2609 6.76832 40.0134 6.02582 39.4359C5.28332 38.8584 4.78832 38.0334 4.62332 37.1259C4.37582 35.1459 5.69582 33.3309 7.67582 33.0834C9.65582 32.8359 11.3883 34.1559 11.7183 36.1359C11.9658 38.1159 10.6458 39.8484 8.66582 40.0959Z" fill="black"/>
<path d="M38.7767 35.6395C38.6942 35.4745 38.6117 35.227 38.3642 35.1445C38.2817 35.1445 38.1992 35.062 38.1167 35.062L34.8992 33.577C30.8567 31.8445 27.4742 30.277 24.1742 28.792C23.6792 28.5445 23.1017 28.297 22.6067 28.0495C20.9567 29.452 19.3067 30.8545 17.4917 32.422C18.1517 32.587 18.7292 32.8345 19.3067 32.9995C19.5542 33.082 19.8017 33.1645 20.0492 33.247L26.2367 35.227C27.3092 35.557 28.4642 35.9695 29.5367 36.2995C30.6092 36.6295 31.6817 36.877 32.7542 36.9595H33.4967H33.9092C35.3117 36.7945 36.7142 36.6295 38.0342 36.4645H38.2817C38.4467 36.4645 38.5292 36.382 38.6942 36.2995C38.7767 36.217 38.8592 36.1345 38.8592 36.052C38.8592 35.887 38.8592 35.722 38.7767 35.6395ZM11.7167 22.2745C11.7167 22.027 11.7167 21.862 11.6342 21.6145C11.2217 18.8095 8.74666 16.747 5.85916 16.8295C4.29166 16.912 2.80666 17.6545 1.73416 18.892C0.744165 20.1295 0.249165 21.697 0.496665 23.2645C0.744165 25.0795 1.81666 26.5645 3.38416 27.3895C4.95166 28.2145 6.84916 28.297 8.41666 27.472C9.15916 27.142 9.65416 27.2245 10.1492 27.637L10.3967 27.8845C10.4792 27.802 10.4792 27.637 10.5617 27.5545C11.1392 26.152 11.9642 24.997 13.2017 24.0895C13.0367 24.007 12.7892 23.9245 12.6242 23.842C12.0467 23.4295 11.7992 23.017 11.7167 22.2745ZM6.68416 25.9045C4.70416 26.152 2.97166 24.832 2.64166 22.9345C2.47666 22.027 2.72416 21.037 3.30166 20.2945C3.87916 19.552 4.70416 19.057 5.61166 18.892C7.59166 18.562 9.32416 19.882 9.65416 21.862C9.98416 23.842 8.66416 25.5745 6.68416 25.9045Z" fill="black"/>
<path d="M44.3046 26.8947C42.8196 25.9872 41.2521 25.2447 39.6846 24.5847C38.8596 24.1722 38.0346 23.8422 37.2921 23.5122L35.8071 22.7697C34.4871 22.1922 33.2496 21.6147 32.0946 20.8722C29.8671 22.6872 27.8871 24.4197 26.0721 25.9872C27.6396 27.0597 29.3721 27.8847 31.1046 28.6272C31.9296 29.0397 32.7546 29.3697 33.5796 29.7822C34.0746 30.0297 34.5696 30.2772 35.0646 30.4422L35.3946 30.6072C36.5496 31.1022 37.7046 31.5972 38.7771 32.3397C39.4371 32.7522 39.8496 33.2472 40.2621 33.9072C40.5096 34.1547 40.7571 34.4847 40.9221 34.8972V34.9797C41.0871 35.3922 41.0871 35.8872 41.0046 36.2997C41.0871 37.1247 41.0046 38.0322 40.7571 38.9397C40.0971 41.0847 38.3646 42.3222 35.7246 42.4047H33.9096C31.1871 42.2397 29.2896 40.6722 28.6296 38.2797L20.1321 35.5572H19.9671C19.3071 42.5697 23.2671 46.9422 32.1771 49.0872L32.8371 49.2522V52.5522H37.3746V49.1697L38.6121 48.9222C39.4371 48.7572 40.1796 48.5922 40.9221 48.3447C45.8721 46.7772 48.677 43.6422 49.337 39.1047C49.997 33.4947 48.347 29.4517 44.3046 26.8947Z" fill="black"/>
<path d="M22.6075 16.9126L25.4951 14.9326C26.6501 14.1076 27.805 13.5301 28.8776 13.1176C29.125 13.0351 29.3726 12.9526 29.6201 12.8701C29.7025 12.8701 29.8675 12.7876 30.0325 12.7051L30.2801 12.6226L30.8575 12.5401C31.6826 11.3851 33.0851 10.8901 35.0651 10.8076C37.7876 10.8076 39.6026 12.0451 40.3451 14.3551C40.5926 15.0151 40.6751 15.7576 40.8401 16.5001V16.5826C40.9226 16.8301 40.9226 17.1601 41.0051 17.4076H49.2551C49.5026 15.0976 48.9251 12.2926 47.6875 10.2301C45.8726 7.09512 42.9026 5.19762 38.5301 4.29012L37.8701 4.12512V0.495117H33.2501V4.12512L32.6726 4.29012C32.1776 4.45512 31.6826 4.62012 31.1876 4.70262C29.8675 5.11512 28.5476 5.44512 27.3925 6.02262C23.7625 7.83762 21.4525 11.3851 21.1225 15.5926C21.04 16.4176 21.04 17.1601 21.205 17.9026C21.6175 17.5726 22.1125 17.2426 22.6075 16.9126Z" fill="black"/>
</g>
<defs>
<clipPath id="clip0_244_7501">
<rect width="50" height="53" fill="white"/>
</clipPath>
</defs>
</svg>
