<svg width="159" height="53" viewBox="0 0 159 53" fill="none" xmlns="http://www.w3.org/2000/svg">
<g clip-path="url(#clip0_5311_2157)">
<path d="M6.59386 52.9176C10.2356 52.9176 13.1877 49.9251 13.1877 46.2337C13.1877 42.5423 10.2356 39.5498 6.59386 39.5498C2.95217 39.5498 0 42.5423 0 46.2337C0 49.9251 2.95217 52.9176 6.59386 52.9176Z" fill="#ECB602"/>
<path d="M41.6227 16.566C41.6233 16.2858 41.5419 16.0116 41.3887 15.7783C41.2356 15.5449 41.0176 15.3629 40.7623 15.2552C40.507 15.1475 40.226 15.119 39.9547 15.1733C39.6835 15.2276 39.4342 15.3622 39.2385 15.5602C39.0428 15.7582 38.9094 16.0105 38.8552 16.2853C38.801 16.5602 38.8285 16.8451 38.9342 17.1041C39.0398 17.3631 39.2189 17.5845 39.4488 17.7403C39.6786 17.896 39.9489 17.9792 40.2254 17.9792C40.5952 17.9783 40.9496 17.8293 41.2114 17.5645C41.4732 17.2998 41.621 16.9408 41.6227 16.566Z" fill="#863D80"/>
<path d="M51.8432 16.1654C51.2623 4.25859 41.8864 0.353291 37.2582 0.165506C27.9671 -0.206882 0.0625 0.165506 0.0625 0.165506C1.52257 10.5828 8.44926 13.1895 11.7305 13.1895H35.5563C38.8765 12.9931 42.1681 13.9103 44.9227 15.7994L45.5507 16.2227C45.5943 16.2556 45.6296 16.2984 45.6539 16.3475C45.6783 16.3967 45.691 16.451 45.691 16.506C45.691 16.561 45.6783 16.6153 45.6539 16.6645C45.6296 16.7137 45.5943 16.7564 45.5507 16.7893L44.8066 17.3081C42.2342 19.0652 39.1847 19.9643 36.0838 19.8798H11.7305C3.98114 19.4692 3.13964 24.1893 5.08639 26.1181C7.30005 28.3206 31.4242 53 31.4242 53H47.0987L27.7693 33.2666C38.3509 34.0241 52.5748 31.0482 51.8432 16.1654ZM37.5188 12.7535C36.496 12.6165 35.4605 12.6069 34.4354 12.7248H34.3914C34.3642 12.7253 34.3373 12.7188 34.3131 12.706C34.289 12.6932 34.2684 12.6745 34.2532 12.6516L33.4965 10.7229C33.4713 10.6795 33.4595 10.6294 33.4627 10.5792C33.4658 10.529 33.4838 10.4808 33.5142 10.4411C33.5447 10.4013 33.5862 10.3717 33.6334 10.3561C33.6807 10.3405 33.7314 10.3397 33.7791 10.3537L36.2534 10.9297C36.4589 10.981 36.6414 11.101 36.7715 11.2703L37.6381 12.5721C37.6529 12.5911 37.6614 12.6143 37.6624 12.6385C37.6634 12.6627 37.6568 12.6866 37.6435 12.7068C37.6303 12.7269 37.6111 12.7423 37.5886 12.7507C37.5662 12.7591 37.5418 12.7601 37.5188 12.7535ZM33.4714 22.2541L34.225 20.3222C34.2421 20.2966 34.2672 20.2777 34.2963 20.2684C34.3254 20.2592 34.3567 20.2602 34.3851 20.2713H34.4322C35.4569 20.3783 36.4902 20.3677 37.5125 20.2394C37.5356 20.2341 37.5597 20.2361 37.5817 20.2451C37.6037 20.2541 37.6224 20.2696 37.6354 20.2897C37.6484 20.3098 37.655 20.3334 37.6543 20.3575C37.6537 20.3815 37.6458 20.4047 37.6318 20.424L36.7683 21.729C36.6341 21.895 36.4517 22.0142 36.2471 22.0695L33.776 22.6424C33.726 22.6546 33.6736 22.652 33.6251 22.635C33.5765 22.6181 33.5337 22.5874 33.5017 22.5466C33.4697 22.5058 33.4499 22.4567 33.4445 22.4048C33.4391 22.353 33.4485 22.3008 33.4714 22.2541Z" fill="#863D80"/>
<path d="M69.8644 40.3608C69.8651 39.6023 69.7398 38.8491 69.4939 38.1328C69.2621 37.4413 68.8995 36.8024 68.4263 36.2518C67.9252 35.649 67.3003 35.1645 66.5952 34.8322C65.8902 34.4998 65.122 34.3276 64.3444 34.3276C63.5668 34.3276 62.7986 34.4998 62.0935 34.8322C61.3884 35.1645 60.7635 35.649 60.2625 36.2518C59.8153 36.8127 59.4698 37.4496 59.242 38.1328C58.8108 39.574 58.8108 41.1125 59.242 42.5537C59.4857 43.2681 59.8454 43.9361 60.3064 44.5302C60.7789 45.1008 61.364 45.5648 62.024 45.8925C62.766 46.2345 63.5716 46.4114 64.3868 46.4114C65.2019 46.4114 66.0075 46.2345 66.7496 45.8925C67.4081 45.5638 67.9919 45.0999 68.464 44.5302C68.9242 43.9426 69.2705 43.272 69.4844 42.5537C69.7302 41.8491 69.8586 41.108 69.8644 40.3608ZM77.1867 40.3608C77.2107 42.1539 76.8631 43.9322 76.1662 45.5806C75.5155 47.0755 74.5698 48.4197 73.3874 49.5304C72.1907 50.6101 70.8066 51.4551 69.3055 52.0225C67.7211 52.6269 66.0403 52.9301 64.3475 52.9169C62.6541 52.9249 60.9733 52.6219 59.3864 52.0225C57.8853 51.4551 56.5012 50.6101 55.3045 49.5304C54.1452 48.4099 53.2167 47.0673 52.5728 45.5806C51.8759 43.9322 51.5283 42.1539 51.5523 40.3608C51.525 38.5817 51.8729 36.8173 52.5728 35.1855C53.2103 33.709 54.1401 32.3809 55.3045 31.2834C56.4954 30.2074 57.882 29.3771 59.3864 28.839C60.9819 28.2754 62.6611 27.9944 64.3506 28.0083C66.0394 27.9951 67.7174 28.2816 69.3086 28.8549C70.8131 29.393 72.1996 30.2233 73.3905 31.2993C74.578 32.3867 75.525 33.7166 76.1694 35.2014C76.866 36.8285 77.2128 38.5873 77.1867 40.3608Z" fill="#FDFDFD"/>
<path d="M96.9582 36.3157C96.4888 35.7234 95.8842 35.2559 95.1967 34.9534C94.4865 34.6143 93.7116 34.4373 92.9265 34.4346C92.1691 34.4227 91.4204 34.6009 90.7474 34.9534C90.1013 35.2662 89.5318 35.7206 89.0801 36.2838C88.6031 36.8401 88.2258 37.4767 87.9654 38.1649C87.4714 39.6603 87.4714 41.2782 87.9654 42.7736C88.2024 43.4771 88.5642 44.1307 89.033 44.7023C89.5193 45.2335 90.1012 45.6656 90.7474 45.9755C91.4614 46.2976 92.2361 46.4584 93.0176 46.4465C93.7934 46.4464 94.5627 46.303 95.2878 46.0232C96.0056 45.7488 96.6438 45.2956 97.1435 44.7055L101.36 49.9253C100.297 50.922 99.0313 51.6705 97.6521 52.1183C96.1011 52.6566 94.4717 52.9266 92.8323 52.9172C91.0974 52.9315 89.3728 52.6452 87.7331 52.0705C86.2038 51.5669 84.7997 50.735 83.6163 49.6315C82.4329 48.5281 81.498 47.179 80.8755 45.6763C80.2049 44.0202 79.8737 42.2432 79.9021 40.4533C79.8765 38.6802 80.2077 36.9203 80.8755 35.2813C81.5143 33.8047 82.4451 32.4767 83.6103 31.3791C84.8024 30.2712 86.2054 29.422 87.7331 28.8838C89.3517 28.2874 91.063 27.9909 92.7852 28.0086C93.6093 28.0064 94.4316 28.0853 95.2407 28.2441C96.0461 28.3923 96.8373 28.6117 97.605 28.8997C98.3406 29.1336 99.0418 29.4666 99.6899 29.8896C100.3 30.2363 100.862 30.6645 101.36 31.1627L96.9582 36.3157Z" fill="#FDFDFD"/>
<path d="M129.372 52.9175H119.767L112.052 41.4404H111.911V52.9175H104.102V16.6113H111.911V38.7031H112.052L119.578 29.002H128.995L119.908 39.8076L129.372 52.9175Z" fill="#FDFDFD"/>
<path d="M131.724 52.9175V28.9956H139.486V52.9175H131.724ZM140.041 21.3569C140.035 21.9332 139.915 22.5024 139.687 23.0306C139.459 23.5587 139.129 24.0351 138.716 24.4314C138.31 24.8328 137.826 25.1439 137.294 25.3449C136.754 25.5699 136.176 25.6846 135.592 25.6823C135.008 25.6979 134.427 25.5953 133.882 25.3805C133.338 25.1658 132.841 24.8431 132.421 24.4314C132.012 24.0348 131.687 23.5573 131.467 23.0285C131.247 22.4996 131.137 21.9307 131.143 21.3569C131.145 20.7976 131.262 20.245 131.485 19.7336C131.694 19.2042 132.015 18.7282 132.427 18.3396C132.842 17.9524 133.323 17.6441 133.846 17.4293C134.394 17.1694 134.993 17.0378 135.598 17.0442C136.182 17.0404 136.761 17.1551 137.3 17.3815C137.832 17.5816 138.316 17.8916 138.723 18.2918C139.133 18.6811 139.455 19.157 139.665 19.6859C139.918 20.2051 140.047 20.7776 140.041 21.3569Z" fill="#FDFDFD"/>
<path d="M153.58 34.53V43.4641C153.58 44.5622 153.778 45.3929 154.18 45.9562C154.582 46.5196 155.37 46.7551 156.453 46.7551C156.841 46.7548 157.228 46.724 157.612 46.6628C157.977 46.6178 158.335 46.5225 158.676 46.3796L158.77 52.0227C158.121 52.241 157.454 52.3987 156.776 52.4937C155.982 52.6493 155.174 52.7282 154.365 52.7292C153.046 52.7636 151.731 52.5731 150.474 52.1659C149.505 51.8121 148.632 51.2321 147.925 50.4726C147.297 49.7011 146.839 48.8027 146.581 47.8373C146.291 46.7176 146.151 45.5637 146.163 44.4062V34.5395H142.455V28.7436H146.116V22.5977H153.58V28.7436H158.999V34.53H153.58Z" fill="#FDFDFD"/>
</g>
<defs>
<clipPath id="clip0_5311_2157">
<rect width="159" height="53" fill="white"/>
</clipPath>
</defs>
</svg>
