<svg width="135" height="45" viewBox="0 0 135 45" fill="none" xmlns="http://www.w3.org/2000/svg">
<g clip-path="url(#clip0_244_7372)">
<path d="M5.59856 44.9296C8.69056 44.9296 11.1971 42.3888 11.1971 39.2546C11.1971 36.1204 8.69056 33.5796 5.59856 33.5796C2.50656 33.5796 0 36.1204 0 39.2546C0 42.3888 2.50656 44.9296 5.59856 44.9296Z" fill="#ECB602"/>
<path d="M35.3415 14.0661C35.342 13.8281 35.2729 13.5954 35.1428 13.3973C35.0128 13.1991 34.8277 13.0446 34.611 12.9532C34.3942 12.8617 34.1556 12.8375 33.9253 12.8836C33.695 12.9297 33.4834 13.044 33.3172 13.2121C33.151 13.3802 33.0377 13.5944 32.9917 13.8278C32.9457 14.0611 32.9691 14.3031 33.0588 14.523C33.1485 14.7429 33.3006 14.9308 33.4957 15.0631C33.6909 15.1954 33.9204 15.266 34.1551 15.266C34.4691 15.2652 34.77 15.1387 34.9923 14.9139C35.2145 14.6891 35.3401 14.3843 35.3415 14.0661Z" fill="#863D80"/>
<path d="M44.0194 13.7254C43.5262 3.61578 35.5656 0.299964 31.6359 0.140524C23.7473 -0.175655 0.0546875 0.140524 0.0546875 0.140524C1.29437 8.98541 7.17552 11.1987 9.96148 11.1987H30.1909C33.01 11.0319 35.8047 11.8106 38.1436 13.4146L38.6768 13.774C38.7137 13.8019 38.7437 13.8382 38.7644 13.88C38.7851 13.9217 38.7958 13.9678 38.7958 14.0145C38.7958 14.0613 38.7851 14.1073 38.7644 14.1491C38.7437 14.1908 38.7137 14.2271 38.6768 14.255L38.0449 14.6955C35.8608 16.1874 33.2716 16.9508 30.6388 16.8791H9.96148C3.38183 16.5304 2.66735 20.5381 4.32026 22.1757C6.19978 24.0458 26.6825 45 26.6825 45H39.9911L23.5793 28.2453C32.5637 28.8884 44.6406 26.3617 44.0194 13.7254ZM31.8572 10.8284C30.9888 10.7121 30.1096 10.704 29.2392 10.8041H29.2019C29.1788 10.8045 29.1559 10.799 29.1354 10.7881C29.1149 10.7773 29.0975 10.7614 29.0846 10.742L28.4421 9.10431C28.4207 9.06749 28.4106 9.025 28.4133 8.98234C28.416 8.93969 28.4313 8.89883 28.4571 8.86506C28.483 8.83129 28.5182 8.80616 28.5583 8.79293C28.5984 8.77969 28.6415 8.77897 28.682 8.79084L30.7828 9.27997C30.9573 9.32351 31.1123 9.42537 31.2227 9.56912L31.9585 10.6744C31.9711 10.6905 31.9783 10.7103 31.9792 10.7308C31.98 10.7514 31.9744 10.7717 31.9631 10.7888C31.9519 10.8059 31.9355 10.8189 31.9165 10.8261C31.8975 10.8332 31.8767 10.834 31.8572 10.8284ZM28.4207 18.895L29.0606 17.2547C29.0751 17.233 29.0964 17.2169 29.1211 17.209C29.1458 17.2012 29.1724 17.202 29.1965 17.2114H29.2365C30.1065 17.3024 30.9839 17.2933 31.8519 17.1844C31.8715 17.1799 31.892 17.1816 31.9106 17.1892C31.9293 17.1968 31.9452 17.2101 31.9562 17.2271C31.9672 17.2442 31.9728 17.2642 31.9723 17.2846C31.9717 17.305 31.9651 17.3247 31.9532 17.3412L31.22 18.4491C31.106 18.5901 30.9512 18.6913 30.7775 18.7383L28.6793 19.2247C28.6369 19.235 28.5925 19.2328 28.5512 19.2184C28.51 19.204 28.4736 19.178 28.4465 19.1433C28.4193 19.1087 28.4025 19.067 28.3979 19.023C28.3934 18.979 28.4013 18.9346 28.4207 18.895Z" fill="#863D80"/>
<path d="M59.3188 34.2686C59.3194 33.6246 59.2131 32.9851 59.0042 32.377C58.8075 31.7899 58.4996 31.2474 58.0978 30.7799C57.6724 30.2681 57.1418 29.8567 56.5431 29.5745C55.9445 29.2923 55.2922 29.1461 54.632 29.1461C53.9718 29.1461 53.3196 29.2923 52.7209 29.5745C52.1223 29.8567 51.5917 30.2681 51.1662 30.7799C50.7866 31.2562 50.4933 31.7969 50.2998 32.377C49.9337 33.6006 49.9337 34.9069 50.2998 36.1306C50.5067 36.7371 50.8122 37.3043 51.2036 37.8087C51.6048 38.2931 52.1015 38.6871 52.6619 38.9654C53.2919 39.2557 53.9759 39.406 54.668 39.406C55.3601 39.406 56.0441 39.2557 56.6742 38.9654C57.2333 38.6863 57.729 38.2925 58.1298 37.8087C58.5206 37.3098 58.8146 36.7404 58.9962 36.1306C59.2049 35.5323 59.3139 34.9031 59.3188 34.2686ZM65.5359 34.2686C65.5563 35.7911 65.2611 37.301 64.6694 38.7005C64.1169 39.9699 63.314 41.1111 62.31 42.0542C61.294 42.9709 60.1188 43.6884 58.8443 44.1701C57.499 44.6833 56.072 44.9407 54.6347 44.9295C53.1969 44.9363 51.7697 44.6791 50.4224 44.1701C49.1479 43.6884 47.9727 42.9709 46.9567 42.0542C45.9723 41.1028 45.184 39.9629 44.6372 38.7005C44.0456 37.301 43.7504 35.7911 43.7708 34.2686C43.7476 32.7581 44.043 31.26 44.6372 29.8746C45.1786 28.6209 45.968 27.4933 46.9567 26.5614C47.9678 25.6478 49.1451 24.9429 50.4224 24.486C51.7771 24.0075 53.2029 23.7689 54.6373 23.7807C56.0712 23.7694 57.4959 24.0127 58.8469 24.4995C60.1243 24.9564 61.3015 25.6613 62.3127 26.5749C63.321 27.4982 64.125 28.6273 64.6721 29.8881C65.2636 31.2695 65.558 32.7628 65.5359 34.2686Z" fill="#0C1E30"/>
<path d="M82.3229 30.8341C81.9243 30.3313 81.411 29.9343 80.8273 29.6775C80.2243 29.3896 79.5663 29.2392 78.8998 29.237C78.2566 29.2268 77.621 29.3782 77.0496 29.6775C76.501 29.9431 76.0174 30.3289 75.6339 30.8071C75.2289 31.2794 74.9086 31.8199 74.6875 32.4042C74.2681 33.6739 74.2681 35.0475 74.6875 36.3172C74.8887 36.9145 75.1959 37.4695 75.5939 37.9549C76.0068 38.4058 76.5009 38.7727 77.0496 39.0358C77.6558 39.3094 78.3136 39.4458 78.9771 39.4358C79.6358 39.4357 80.289 39.3139 80.9046 39.0764C81.5141 38.8434 82.0559 38.4586 82.4802 37.9576L86.0606 42.3895C85.1578 43.2357 84.0831 43.8712 82.9121 44.2514C81.5951 44.7085 80.2118 44.9378 78.8198 44.9297C77.3467 44.9419 75.8825 44.6988 74.4902 44.2109C73.1918 43.7832 71.9996 43.0769 70.9949 42.14C69.9901 41.2031 69.1963 40.0577 68.6677 38.7818C68.0984 37.3757 67.8172 35.8669 67.8413 34.3472C67.8195 32.8417 68.1007 31.3475 68.6677 29.9558C69.2102 28.7022 70.0005 27.5746 70.9898 26.6427C72.0019 25.702 73.1931 24.981 74.4902 24.5241C75.8646 24.0176 77.3176 23.7659 78.7798 23.7809C79.4795 23.7791 80.1777 23.846 80.8646 23.9809C81.5485 24.1067 82.2202 24.293 82.8721 24.5376C83.4966 24.7362 84.092 25.0188 84.6423 25.378C85.1607 25.6724 85.6377 26.0359 86.0606 26.459L82.3229 30.8341Z" fill="#0C1E30"/>
<path d="M109.843 44.9295H101.687L95.137 35.1848H95.017V44.9295H88.3867V14.1035H95.017V32.8607H95.137L101.527 24.6239H109.523L101.807 33.7984L109.843 44.9295Z" fill="#0C1E30"/>
<path d="M111.841 44.9299V24.6188H118.431V44.9299H111.841ZM118.903 18.1331C118.898 18.6224 118.796 19.1057 118.602 19.5542C118.409 20.0026 118.129 20.4071 117.778 20.7436C117.433 21.0844 117.022 21.3485 116.571 21.5192C116.112 21.7102 115.621 21.8076 115.126 21.8056C114.63 21.8189 114.136 21.7318 113.674 21.5494C113.211 21.3671 112.79 21.0931 112.433 20.7436C112.086 20.4068 111.81 20.0014 111.623 19.5524C111.437 19.1034 111.343 18.6203 111.348 18.1331C111.35 17.6583 111.449 17.189 111.638 16.7549C111.816 16.3054 112.089 15.9012 112.438 15.5712C112.791 15.2425 113.199 14.9807 113.643 14.7984C114.109 14.5778 114.617 14.466 115.131 14.4714C115.627 14.4682 116.118 14.5656 116.576 14.7578C117.027 14.9277 117.438 15.1909 117.784 15.5307C118.132 15.8613 118.405 16.2653 118.583 16.7143C118.798 17.1552 118.908 17.6413 118.903 18.1331Z" fill="#0C1E30"/>
<path d="M130.399 29.3182V36.9038C130.399 37.8361 130.567 38.5414 130.908 39.0198C131.249 39.4981 131.918 39.6981 132.838 39.6981C133.167 39.6978 133.496 39.6716 133.822 39.6197C134.132 39.5814 134.436 39.5005 134.726 39.3792L134.806 44.1705C134.254 44.3559 133.688 44.4898 133.113 44.5705C132.438 44.7026 131.752 44.7695 131.065 44.7704C129.945 44.7996 128.829 44.6379 127.762 44.2921C126.939 43.9918 126.198 43.4992 125.597 42.8544C125.064 42.1994 124.675 41.4365 124.456 40.6169C124.21 39.6662 124.091 38.6865 124.102 37.7037V29.3263H120.953V24.4053H124.062V19.187H130.399V24.4053H135V29.3182H130.399Z" fill="#0C1E30"/>
</g>
<defs>
<clipPath id="clip0_244_7372">
<rect width="135" height="45" fill="white"/>
</clipPath>
</defs>
</svg>
