<svg width="26" height="26" viewBox="0 0 26 26" fill="none" xmlns="http://www.w3.org/2000/svg">
<g clip-path="url(#clip0_5311_2139)">
<path d="M5.09671 0.00683594C2.29607 0.00683594 0.00390625 2.29894 0.00390625 5.09964V20.9035C0.00390625 23.7041 2.29602 25.9955 5.09671 25.9955H20.9006C23.7013 25.9955 25.9926 23.7042 25.9926 20.9035V5.09964C25.9926 2.299 23.7013 0.00683594 20.9006 0.00683594H5.09671ZM6.37763 4.29548C7.72048 4.29548 8.54762 5.17704 8.57315 6.33583C8.57315 7.46904 7.72043 8.37538 6.35166 8.37538H6.32646C5.00917 8.37538 4.15775 7.4691 4.15775 6.33583C4.15775 5.17707 5.03494 4.29548 6.3776 4.29548H6.37763ZM17.9497 9.71154C20.5323 9.71154 22.4683 11.3995 22.4683 15.0269V21.7986H18.5435V15.4809C18.5435 13.8933 17.9755 12.8102 16.5551 12.8102C15.4708 12.8102 14.8245 13.5403 14.5407 14.2455C14.4371 14.4978 14.4116 14.8502 14.4116 15.2031V21.7986H10.4868C10.4868 21.7986 10.5383 11.0966 10.4868 9.9885H14.4124V11.6609C14.9339 10.8562 15.8669 9.71152 17.9497 9.71152V9.71154ZM4.38925 9.98936H8.31403V21.7986H4.38925V9.98936Z" fill="#8F99A1"/>
</g>
<defs>
<clipPath id="clip0_5311_2139">
<rect width="26" height="26" fill="white"/>
</clipPath>
</defs>
</svg>
