<svg width="66" height="44" viewBox="0 0 66 44" fill="none" xmlns="http://www.w3.org/2000/svg">
<g clip-path="url(#clip0_244_7507)">
<path d="M44.4231 0.0357739C36.5074 0.0357739 29.596 4.44801 25.8693 10.9821H20.0874C19.5034 10.9821 19.0297 11.4664 19.0297 12.0636C19.0297 12.6608 19.5034 13.1451 20.0874 13.1451H24.7805C24.1562 14.576 23.685 16.0718 23.3752 17.6061H13.7772C13.1931 17.6061 12.7195 18.0904 12.7195 18.6876C12.7195 19.2848 13.1931 19.769 13.7772 19.769H23.0527C22.9049 21.2522 22.9049 22.7469 23.0527 24.2301H7.46657C6.88248 24.2301 6.40888 24.7143 6.40888 25.3116C6.40888 25.9088 6.88248 26.393 7.46657 26.393H23.3755C23.6852 27.9278 24.1569 29.4239 24.7812 30.8551H1.15535C0.571261 30.8551 0.0976562 31.3393 0.0976562 31.9365C0.0976562 32.5337 0.571261 33.018 1.15535 33.018H25.8703C29.5968 39.5516 36.5082 43.9635 44.4228 43.9635C56.2675 43.9635 65.9043 34.1111 65.9043 21.9993C65.9043 9.88757 56.2679 0.0351562 44.4228 0.0351562L44.4231 0.0357739ZM53.6614 23.0814H44.4231C44.1426 23.0814 43.8735 22.9675 43.6751 22.7647C43.4768 22.5619 43.3654 22.2867 43.3654 21.9999V6.39847C43.3654 5.80126 43.839 5.31701 44.4231 5.31701C45.0072 5.31701 45.4808 5.80126 45.4808 6.39847V20.9185H53.6614C54.2455 20.9185 54.7191 21.4027 54.7191 21.9999C54.7191 22.5971 54.2455 23.0814 53.6614 23.0814Z" fill="black"/>
</g>
<defs>
<clipPath id="clip0_244_7507">
<rect width="66" height="44" fill="white"/>
</clipPath>
</defs>
</svg>
