<svg width="184" height="403" viewBox="0 0 184 403" fill="none" xmlns="http://www.w3.org/2000/svg">
<path d="M44.1204 156.747L157.724 43.8469C182.091 19.6309 221.502 19.7256 245.752 44.0585L358.812 157.504C383.062 181.836 382.967 221.193 358.601 245.409L244.997 358.31C220.63 382.526 181.219 382.431 156.969 358.098L43.9092 244.653C19.6591 220.32 19.7537 180.963 44.1204 156.747Z" fill="url(#paint0_linear_244_7474)" fill-opacity="0.4"/>
<path d="M109.635 182.139L183.313 108.916C193.352 98.9394 209.589 98.9784 219.58 109.003L292.906 182.579C302.897 192.604 302.858 208.819 292.819 218.796L219.141 292.018C209.102 301.995 192.864 301.956 182.873 291.931L109.548 218.355C99.5568 208.33 99.5957 192.116 109.635 182.139Z" fill="#0C1E30"/>
<defs>
<linearGradient id="paint0_linear_244_7474" x1="-16.9227" y1="200.53" x2="260.927" y2="201.197" gradientUnits="userSpaceOnUse">
<stop offset="0.16" stop-color="#F2E462"/>
<stop offset="0.84" stop-color="#DE77D4"/>
<stop offset="1" stop-color="#722B6C"/>
</linearGradient>
</defs>
</svg>
