<svg width="46" height="46" viewBox="0 0 46 46" fill="none" xmlns="http://www.w3.org/2000/svg">
<g clip-path="url(#clip0_244_7356)">
<path d="M20.7981 37.3899C21.6672 38.2984 23.1883 39.8985 25.5387 42.3481C27.9485 38.8915 28.2449 33.9926 28.1856 31.1091L20.7981 37.3899ZM25.6176 45.5872C25.2621 45.5872 24.9262 45.4489 24.6891 45.1922C19.8496 40.1156 17.9926 38.1996 17.9926 38.1797C17.7555 37.9231 17.6172 37.5872 17.6371 37.2317C17.657 36.8762 17.8148 36.5403 18.0914 36.3231L38.2594 19.2171C38.536 18.98 44.7383 13.6663 42.6051 3.35508C32.2941 1.22188 26.9411 7.38479 26.7231 7.66129L9.63711 27.8493C9.4 28.1258 9.08399 28.2837 8.72852 28.3036C8.37305 28.3235 8.03711 28.1852 7.78047 27.9481C7.76054 27.9282 5.80507 26.0516 0.767967 21.2516C0.511327 21.0145 0.373047 20.659 0.373047 20.3231C0.373047 19.9872 0.531247 19.6317 0.787887 19.3946C5.90389 14.654 14.5359 15.0688 16.9259 15.3055L24.7876 6.04138C25.0442 5.72536 31.6024 -1.93873 44.0076 1.06367C44.4818 1.18203 44.8373 1.53789 44.9556 2.01172C47.9579 14.4367 40.274 20.9347 39.9384 21.2117L30.6939 29.0535C30.9111 31.4437 31.3459 40.0755 26.6048 45.1915C26.3283 45.4294 25.9923 45.5677 25.6169 45.5872C25.6169 45.5872 25.6369 45.5872 25.6169 45.5872L25.6176 45.5872ZM3.5926 20.4021C6.0418 22.733 7.6418 24.2736 8.5508 25.1427L14.8125 17.7353C11.948 17.6764 7.0492 17.9924 3.5925 20.4021H3.5926ZM34.9016 15.3654C32.4918 15.3654 30.536 13.4099 30.536 10.9998C30.536 8.59005 32.4915 6.63425 34.9016 6.63425C37.3114 6.63425 39.2672 8.58975 39.2672 10.9998C39.2672 13.4096 37.3113 15.3654 34.9016 15.3654ZM34.9016 9.20215C33.9141 9.20215 33.1039 10.0119 33.1039 10.9998C33.1039 11.9873 33.9137 12.7975 34.9016 12.7975C35.8891 12.7975 36.6993 11.9878 36.6993 10.9998C36.6993 10.0123 35.8895 9.20215 34.9016 9.20215ZM2.0526 44.4222C1.71666 44.4222 1.38112 44.2839 1.12408 44.0272C0.748688 43.6518 0.669777 43.0792 0.886967 42.6049L6.33897 30.8319C6.5167 30.4565 6.87217 30.18 7.28702 30.1011C7.70186 30.0222 8.11671 30.1604 8.41282 30.4565L15.1288 37.1725C15.4253 37.469 15.5632 37.9034 15.4843 38.3381C15.4054 38.753 15.1089 39.1085 14.714 39.2667L2.54598 44.3233C2.36864 44.3822 2.21043 44.4217 2.05262 44.4217L2.0526 44.4222ZM7.8796 33.5772L4.5808 40.6881L11.9288 37.6264L7.8796 33.5772Z" fill="#E2E2E2"/>
</g>
<defs>
<clipPath id="clip0_244_7356">
<rect width="46" height="46" fill="white"/>
</clipPath>
</defs>
</svg>
