<svg width="48" height="48" viewBox="0 0 48 48" fill="none" xmlns="http://www.w3.org/2000/svg">
<g clip-path="url(#clip0_244_7369)">
<path d="M41.2598 7.62826C39.6371 6.17587 37.4574 5.4804 35.2732 5.72327C31.7653 6.1118 28.9282 8.93921 28.5283 12.446C28.2076 15.2592 29.4452 18.0111 31.7581 19.6272C31.9394 19.7538 32.058 19.9555 32.084 20.1801L32.4168 23.0383C32.4905 23.6742 33.0282 24.1534 33.6686 24.1534H38.6234C39.2624 24.1534 39.8004 23.6746 39.8752 23.039L40.2073 20.1798C40.2329 19.9556 40.3561 19.7515 40.5443 19.619C42.5918 18.1828 43.8142 15.8364 43.8142 13.3426C43.8145 11.1653 42.8835 9.08209 41.2598 7.62828L41.2598 7.62826ZM38.4206 22.6659H33.8717L33.8166 22.1933H38.4753L38.4206 22.6659ZM38.5905 21.2014H33.7014L33.6305 20.5907H38.6618L38.5905 21.2014ZM39.6896 18.4021C39.271 18.6962 38.971 19.12 38.8219 19.5989L33.4703 19.5985C33.3222 19.1193 33.025 18.6976 32.6108 18.408C30.7456 17.1047 29.7482 14.8849 30.007 12.6149C30.3295 9.79136 32.613 7.51516 35.4372 7.20242C37.2284 7.00348 38.9407 7.54979 40.2668 8.73754C41.5756 9.90934 42.3264 11.5885 42.3264 13.3436C42.3264 15.3531 41.3407 17.2439 39.6896 18.4022V18.4021ZM35.4019 3.11909V1.08956C35.4019 0.678537 35.7351 0.345703 36.1458 0.345703C36.5564 0.345703 36.8896 0.678537 36.8896 1.08956L36.89 3.11909C36.89 3.53011 36.5568 3.86295 36.1461 3.86295C35.7351 3.86329 35.4019 3.53011 35.4019 3.11909ZM29.5451 2.95025C29.3396 2.59459 29.4614 2.13928 29.8174 1.93407C30.1731 1.72856 30.6284 1.84965 30.8336 2.20636L31.8487 3.96433C32.0542 4.31999 31.9324 4.7753 31.5764 4.9805C31.4591 5.04832 31.3315 5.08049 31.2048 5.08049C30.9481 5.08049 30.6976 4.94695 30.5603 4.70822L29.5451 2.95025ZM40.4429 3.96431L41.4577 2.20634C41.6632 1.85033 42.1189 1.72854 42.4739 1.93405C42.8299 2.13957 42.9513 2.59453 42.7462 2.95024L41.7314 4.7082C41.5937 4.94658 41.3436 5.08048 41.0868 5.08048C40.9606 5.08048 40.8326 5.0483 40.7153 4.98049C40.3593 4.77498 40.2375 4.32001 40.443 3.96431H40.4429ZM25.1316 6.47407C25.3371 6.11806 25.7924 5.99627 26.1478 6.20178L27.9057 7.21655C28.2618 7.42206 28.3832 7.87702 28.178 8.23273C28.0403 8.47111 27.7902 8.605 27.5335 8.605C27.4072 8.605 27.2792 8.57282 27.1619 8.50501L25.4039 7.49025C25.0476 7.28474 24.9261 6.82977 25.1316 6.47407H25.1316ZM46.8883 7.49025L45.1303 8.50501C45.013 8.57282 44.8854 8.605 44.7587 8.605C44.502 8.605 44.2515 8.47145 44.1142 8.23273C43.9087 7.87706 44.0304 7.42175 44.3865 7.21655L46.1444 6.20178C46.5001 5.99627 46.9554 6.11805 47.1606 6.47407C47.3661 6.82974 47.2443 7.2847 46.8883 7.49025H46.8883ZM28.1971 20.977C27.449 20.6355 26.5861 20.6252 25.8305 20.9487L12.8034 26.5266L13.6469 23.6754C14.0922 22.1708 13.3871 20.5837 12.0063 19.9824C11.2379 19.6475 10.393 19.6427 9.62703 19.9682C8.87141 20.2893 8.27455 20.9145 8.00511 21.6428L3.91072 30.9206C3.8346 31.0933 3.71766 31.249 3.57304 31.3704L1.71853 32.9253C0.789949 33.7037 0.486503 34.9753 0.963602 36.0893L5.03612 45.601C5.56962 46.8472 6.95803 47.5171 8.26623 47.1583L20.5511 43.786C20.6286 43.7649 20.7037 43.7386 20.7767 43.7075L23.0297 42.7428C24.4483 42.1353 25.2052 40.5503 24.7527 39.1339C24.5258 38.4198 24.0393 37.8299 23.3989 37.469C24.0241 36.7124 24.268 35.6816 23.9629 34.7278C23.7362 34.0182 23.2498 33.4245 22.6094 33.0633C23.2346 32.3066 23.4782 31.2759 23.173 30.3225C22.989 29.7454 22.6319 29.2447 22.1606 28.8832L28.0468 26.3627C29.466 25.7551 30.2227 24.1702 29.7702 22.7538C29.5197 21.9642 28.9453 21.3186 28.1977 20.9768L28.1971 20.977ZM27.4608 24.9945L16.6684 29.6151C16.2909 29.7767 16.1155 30.2144 16.2774 30.5918C16.439 30.9693 16.8767 31.1447 17.2541 30.9828L19.8189 29.8847C20.1901 29.7259 20.6143 29.7314 20.9817 29.8988C21.3543 30.0691 21.6294 30.3805 21.7553 30.7742C21.9771 31.4679 21.5858 32.2536 20.8641 32.5625L18.3855 33.6236C18.0081 33.7852 17.8327 34.2229 17.9946 34.6003C18.1561 34.9778 18.5938 35.1532 18.9713 34.9913L20.6095 34.2899C20.9807 34.1308 21.4045 34.136 21.7723 34.3041C22.1443 34.474 22.4172 34.7826 22.5453 35.1791C22.767 35.8728 22.3754 36.6585 21.6537 36.9678L20.1019 37.6321C19.7245 37.7937 19.549 38.2313 19.711 38.6088C19.8725 38.9863 20.3102 39.1617 20.6876 38.9997L21.399 38.6953C21.7702 38.5361 22.194 38.5413 22.5615 38.7091C22.9341 38.8793 23.2085 39.1876 23.3351 39.5851C23.5569 40.2788 23.1652 41.0642 22.4439 41.3732L20.159 42.3489L7.87238 45.7216C7.27833 45.8849 6.6469 45.5807 6.40439 45.014L2.33082 35.5032C2.11423 34.9971 2.25193 34.4189 2.67403 34.065L4.52881 32.5105C4.84676 32.2437 5.10383 31.9019 5.27163 31.521L9.38294 22.2024C9.52894 21.809 9.82233 21.5017 10.2088 21.3377C10.5949 21.1734 11.0219 21.1769 11.4118 21.3467C11.7512 21.4941 12.0089 21.7754 12.1546 22.1159C12.302 22.4601 12.3345 22.8646 12.2193 23.2531L10.9267 27.6229C10.8447 27.9 10.9308 28.1986 11.1457 28.3896C11.3612 28.5812 11.6681 28.6311 11.9331 28.5176L26.4155 22.3165C26.7867 22.1577 27.2102 22.1626 27.5783 22.3307C27.9509 22.5006 28.2239 22.8102 28.3519 23.206C28.5737 23.9008 28.1821 24.6862 27.4604 24.9951L27.4608 24.9945Z" fill="#E2E2E2"/>
</g>
<defs>
<clipPath id="clip0_244_7369">
<rect width="48" height="48" fill="white"/>
</clipPath>
</defs>
</svg>
